<?xml version="1.0" encoding="UTF-8"?>
<svg id="Ebene_2" data-name="Ebene 2" xmlns="http://www.w3.org/2000/svg" viewBox="0 0 529.85 529.85">
  <defs>
    <style>
      .cls-1, .cls-2 {
        stroke-width: 0px;
      }

      .cls-2 {
        fill: none;
      }
    </style>
  </defs>
  <g id="Ebene_1-2" data-name="Ebene 1">
    <rect class="cls-2" width="529.85" height="529.85"/>
    <g>
      <path class="cls-1" d="m264.38,458.61c-58.85,0-117.69,0-176.54,0-7.46,0-9.07-1.59-9.07-8.92,0-65.97.04-131.93-.09-197.9-.01-4.95,1.73-7.75,6.08-9.95,10.91-5.52,21.57-11.52,32.43-17.15,2.62-1.36,3.66-2.88,3.65-5.97-.12-41.1-.08-82.21-.08-123.31,0-6.92,1.72-8.65,8.58-8.65,90.2,0,180.41,0,270.61,0,6.94,0,8.69,1.73,8.69,8.55,0,41.23.03,82.46-.06,123.69,0,2.74.77,4.17,3.24,5.45,11.41,5.91,22.66,12.14,34.05,18.08,3.41,1.78,4.82,4.19,4.81,8.04-.07,66.72-.05,133.43-.05,200.15,0,5.99-2,7.91-8.21,7.91-59.35,0-118.69,0-178.03,0Zm.38-359.87c-42.6,0-85.19.04-127.79-.08-3.41,0-4.31.85-4.3,4.29.11,53.59.11,107.18,0,160.77,0,2.99,1.04,4.36,3.54,5.69,41.89,22.23,83.73,44.54,125.55,66.91,2.09,1.12,3.64,1.24,5.8.09,41.92-22.44,83.87-44.81,125.87-67.09,2.43-1.29,3.29-2.72,3.28-5.47-.09-53.71-.1-107.43.03-161.14,0-3.46-1.05-4.03-4.19-4.02-42.6.1-85.19.07-127.79.07Zm149.55,347.64c-.67-1.08-1.01-1.73-1.43-2.31-29.69-40.19-59.41-80.36-89.05-120.59-1.54-2.09-2.75-2.13-4.89-.98-16.27,8.77-32.65,17.33-48.89,26.16-3.67,2-6.72,2.14-10.47.09-15.89-8.69-31.97-17.02-47.87-25.67-3.05-1.66-4.64-1.68-6.91,1.41-29.05,39.58-58.28,79.02-87.45,118.51-.71.96-1.76,1.78-1.81,3.38h298.78Zm-323.55-93.58c0,29.6,0,59.19,0,88.79,0,1,0,2,.02,3,.02.89.11,1.62,1.23,1.98,3.44,1.09,7.96-.29,10.15-3.25,30.73-41.56,61.43-83.15,92.23-124.66,1.96-2.64,2.02-3.73-1.11-5.39-32.99-17.45-65.89-35.06-98.81-52.63-3.67-1.96-3.7-1.95-3.7,2.26,0,29.97,0,59.94,0,89.91Zm347.87-.3c0-29.47,0-58.93,0-88.4q0-5.41-4.63-2.95c-32.48,17.33-64.96,34.67-97.44,52q-3.96,2.11-1.31,5.71c28.27,38.25,56.54,76.5,84.82,114.75,2.75,3.71,5.5,7.43,8.23,11.15,2.46,3.36,6.04,1.88,8.99,1.6,2.51-.24,1.28-3.09,1.29-4.71.08-29.72.06-59.43.06-89.15Zm-29.97-103.92c0,3.11,0,6.22,0,9.32,0,2.12.92,2.72,2.8,1.71,5.8-3.11,11.6-6.25,17.4-9.36,1.76-.94,2.34-1.88.17-3.05-5.92-3.17-11.81-6.37-17.74-9.53-1.68-.89-2.62-.36-2.63,1.58-.02,3.11,0,6.22-.01,9.32Zm-287.93.08c0-3-.02-5.99,0-8.99.02-2.32-.89-2.97-2.98-1.84-5.82,3.15-11.64,6.29-17.47,9.43-1.84.99-1.73,1.89.04,2.84,5.83,3.13,11.65,6.28,17.47,9.43,2.15,1.16,2.97.37,2.95-1.88-.03-3,0-5.99,0-8.99Z"/>
      <path class="cls-1" d="m292.98,226.95c-1.26,1.49-2.33,2.83-3.48,4.1-13.91,15.36-34.97,15.56-49.15.47-16.09-17.11-15.35-46.95,1.56-63.23,15.51-14.92,38.63-11.99,51.05,6.5,5,7.45,7.47,15.75,7.68,24.69.14,6.27.78,12.46,2.32,18.54.31,1.21.68,2.4,1.11,3.57,3.79,10.35,12.36,12.24,20.31,4.43,3.51-3.45,5.87-7.75,6.14-12.54.76-13.66.12-27.14-5.69-39.99-12.19-26.91-40.87-42.43-70.65-37.91-28.32,4.3-51.22,27.87-54.79,56.4-4.92,39.33,24.14,73.33,63.82,74.68,4.81.16,7.48,2.31,7.47,6.03,0,3.84-2.87,6.02-7.86,5.97-37.82-.39-71.28-30.69-75.41-68.28-4.66-42.44,22.67-79.06,64.64-86.63,42.75-7.71,85.22,24.08,90,67.26.84,7.61.83,15.23.52,22.83-.55,13.74-11.57,26.01-25.07,28.47-8.9,1.62-16.02-1.4-20.94-8.99-1.27-1.97-2.3-4.09-3.57-6.36Zm-4.26-26.14c-.2-8.49-2.49-16.25-8.3-22.68-8.95-9.9-22.61-9.84-31.56.09-10.81,11.99-10.88,32.69-.16,44.78,9.09,10.25,23.02,10.23,32.05-.11,5.51-6.31,7.72-13.84,7.96-22.08Z"/>
    </g>
  </g>
</svg>